<?xml version="1.0" encoding="UTF-8"?>
<svg xmlns="http://www.w3.org/2000/svg" viewBox="0 0 113.09 61.34">
<path fill="#fe5226" d="M14.23,18.15c2.69,0,4.82,.62,6.39,1.85,1.57,1.23,2.35,2.99,2.35,5.27,0,1.46-.36,2.83-1.06,4.12-.71,1.29-1.63,2.51-2.77,3.67-1.14,1.16-2.36,2.28-3.67,3.36-1.31,1.08-2.57,2.14-3.78,3.17-1.21,1.03-2.25,2.08-3.11,3.16h11.65c1.53,0,2.5-.2,2.91-.62,.41-.41,.69-1.12,.84-2.13h1.01c0,2.17,.02,3.83,.06,4.99,.04,1.16,.09,2.2,.17,3.14-.34-.08-.95-.13-1.85-.17-.9-.04-1.92-.07-3.08-.08-1.16-.02-2.3-.03-3.42-.03H2.69v-1.01c1.08-1.19,2.41-2.48,3.98-3.87,1.57-1.38,3.09-2.89,4.57-4.54,1.47-1.64,2.71-3.44,3.7-5.41,.99-1.96,1.49-4.08,1.49-6.36,0-2.09-.48-3.6-1.43-4.54-.95-.93-2.31-1.4-4.06-1.4-1.53,0-2.92,.42-4.17,1.26-1.25,.84-2.36,2.08-3.33,3.72l-.9-.56c.63-1.19,1.46-2.32,2.46-3.39,1.01-1.06,2.27-1.93,3.78-2.6,1.51-.67,3.33-1.01,5.46-1.01Z"/>
<path fill="#fe5226" d="M45.2,18.15c2.76,0,5.2,.61,7.31,1.82,2.11,1.21,3.77,2.93,4.99,5.15,1.21,2.22,1.82,4.83,1.82,7.81s-.63,5.67-1.88,8.04c-1.25,2.37-2.97,4.24-5.15,5.6s-4.75,2.04-7.7,2.04c-2.69,0-5.11-.61-7.25-1.82-2.15-1.21-3.83-2.93-5.04-5.15-1.21-2.22-1.82-4.83-1.82-7.81s.61-5.61,1.82-7.98c1.21-2.37,2.93-4.25,5.15-5.63,2.22-1.38,4.81-2.07,7.76-2.07Zm-.56,1.01c-2.24,0-4.09,1.28-5.55,3.84-1.46,2.56-2.18,6.12-2.18,10.67,0,3.36,.37,6.06,1.12,8.09,.75,2.04,1.75,3.52,3,4.45,1.25,.93,2.61,1.4,4.06,1.4,2.28,0,4.15-1.28,5.6-3.84,1.46-2.56,2.18-6.11,2.18-10.67,0-3.36-.37-6.07-1.12-8.12-.75-2.05-1.75-3.54-3-4.45-1.25-.91-2.62-1.37-4.12-1.37Z"/>
<path fill="#fe5226" d="M76.35,18.15c2.69,0,4.82,.62,6.39,1.85,1.57,1.23,2.35,2.99,2.35,5.27,0,1.46-.36,2.83-1.06,4.12-.71,1.29-1.63,2.51-2.77,3.67-1.14,1.16-2.36,2.28-3.67,3.36-1.31,1.08-2.57,2.14-3.78,3.17-1.21,1.03-2.25,2.08-3.11,3.16h11.65c1.53,0,2.5-.2,2.91-.62,.41-.41,.69-1.12,.84-2.13h1.01c0,2.17,.02,3.83,.06,4.99,.04,1.16,.09,2.2,.17,3.14-.34-.08-.95-.13-1.85-.17-.9-.04-1.92-.07-3.08-.08-1.16-.02-2.3-.03-3.42-.03h-14.17v-1.01c1.08-1.19,2.41-2.48,3.98-3.87,1.57-1.38,3.09-2.89,4.57-4.54,1.47-1.64,2.71-3.44,3.7-5.41,.99-1.96,1.49-4.08,1.49-6.36,0-2.09-.48-3.6-1.43-4.54-.95-.93-2.31-1.4-4.06-1.4-1.53,0-2.92,.42-4.17,1.26-1.25,.84-2.36,2.08-3.33,3.72l-.9-.56c.63-1.19,1.46-2.32,2.46-3.39,1.01-1.06,2.27-1.93,3.78-2.6,1.51-.67,3.33-1.01,5.46-1.01Z"/>
<path fill="#fe5226" d="M109.45,16.36c0,2.24,.02,3.99,.06,5.24,.04,1.25,.09,2.38,.17,3.39-.3-.07-.87-.13-1.71-.17-.84-.04-1.8-.06-2.88-.08-1.08-.02-2.15-.03-3.19-.03h-6.83l-.73,10.36c.82-.48,1.8-.91,2.94-1.29,1.14-.37,2.55-.56,4.23-.56,2.35,0,4.29,.38,5.8,1.15,1.51,.77,2.63,1.8,3.36,3.11,.73,1.31,1.09,2.78,1.09,4.43,0,2.17-.58,4.13-1.74,5.88-1.16,1.75-2.7,3.25-4.62,4.48-1.92,1.23-4.04,2.18-6.36,2.86-2.32,.67-4.65,1.01-7,1.01v-1.01c1.68,0,3.31-.27,4.9-.81,1.59-.54,3.02-1.35,4.29-2.44,1.27-1.08,2.29-2.41,3.05-3.98,.76-1.57,1.15-3.4,1.15-5.49,0-2.35-.59-4.18-1.76-5.49-1.18-1.31-2.87-1.96-5.07-1.96-1.01,0-1.86,.1-2.55,.31-.69,.21-1.43,.5-2.21,.87l-.62-.39,1.29-16.97c.41,.08,.89,.13,1.43,.17,.54,.04,1.07,.06,1.6,.06h7.28c1.38,0,2.29-.2,2.72-.59s.7-1.07,.81-2.04h1.12Z"/>
</svg>