<?xml version="1.0" encoding="UTF-8"?>
<svg xmlns="http://www.w3.org/2000/svg" viewBox="0 0 110.16 109.92">
<path fill="#fe5226" d="M44.27,61.84c-.8,1.67-1.54,3.29-2.24,4.79-.46,.99,.27,2.13,1.36,2.13h8.5c.83,0,1.5,.67,1.5,1.5v5.4c0,.83-.67,1.5-1.5,1.5H1.5c-.83,0-1.5-.67-1.5-1.5v-5.4c0-.83,.67-1.5,1.5-1.5H11.97c1.03,0,1.76-1.02,1.42-1.99-.55-1.59-1.2-3.2-1.86-4.7-.37-.84,.1-1.81,.98-2.05l1.41-.38H7.62c-.83,0-1.5-.67-1.5-1.5v-20.04c0-.83,.67-1.5,1.5-1.5H48.3c.83,0,1.5,.67,1.5,1.5v20.04c0,.83-.67,1.5-1.5,1.5h-5.46l.4,.08c.95,.2,1.46,1.24,1.04,2.12ZM34.38,8.4h17.52c.83,0,1.5,.67,1.5,1.5v5.28c0,.83-.67,1.5-1.5,1.5h-17.52c-.83,0-1.5,.67-1.5,1.5v3.84c0,.83,.67,1.5,1.5,1.5h15.24c.83,0,1.5,.67,1.5,1.5v5.16c0,.83-.67,1.5-1.5,1.5H6.06c-.83,0-1.5-.67-1.5-1.5v-5.16c0-.83,.67-1.5,1.5-1.5h15.12c.83,0,1.5-.67,1.5-1.5v-3.84c0-.83-.67-1.5-1.5-1.5H3.06c-.83,0-1.5-.67-1.5-1.5v-5.28c0-.83,.67-1.5,1.5-1.5H21.18c.83,0,1.5-.67,1.5-1.5V1.5c0-.83,.67-1.5,1.5-1.5h7.2c.83,0,1.5,.67,1.5,1.5V6.9c0,.83,.67,1.5,1.5,1.5ZM7.38,82.2H48.66c.83,0,1.5,.67,1.5,1.5v24.72c0,.83-.67,1.5-1.5,1.5h-7.2c-.83,0-1.5-.67-1.5-1.5h0c0-.83-.67-1.5-1.5-1.5H17.34c-.83,0-1.5,.67-1.5,1.5h0c0,.83-.67,1.5-1.5,1.5H7.38c-.83,0-1.5-.67-1.5-1.5v-24.72c0-.83,.67-1.5,1.5-1.5Zm9.84-30h20.88c.83,0,1.5-.67,1.5-1.5v-5.4c0-.83-.67-1.5-1.5-1.5H17.22c-.83,0-1.5,.67-1.5,1.5v5.4c0,.83,.67,1.5,1.5,1.5Zm-1.38,38.7v6.84c0,.83,.67,1.5,1.5,1.5h21.12c.83,0,1.5-.67,1.5-1.5v-6.84c0-.83-.67-1.5-1.5-1.5H17.34c-.83,0-1.5,.67-1.5,1.5Zm4.74-29.15c.92,2.03,1.71,4.14,2.27,5.97,.19,.63,.77,1.05,1.43,1.05h6.61c.62,0,1.18-.38,1.4-.96,.75-1.94,1.58-4.14,2.25-6.2,.32-.97-.41-1.96-1.43-1.96h-11.16c-1.08,0-1.82,1.12-1.37,2.11Zm89.57,8.51v5.4c0,.83-.67,1.5-1.5,1.5H56.94c-.83,0-1.5-.67-1.5-1.5v-5.4c0-.83,.67-1.5,1.5-1.5h9.02c1.03,0,1.77-1.02,1.42-2-.57-1.59-1.26-3.22-1.98-4.72-.41-.87,.08-1.89,1.01-2.11l1.27-.29h-6.06c-.83,0-1.5-.67-1.5-1.5v-20.04c0-.83,.67-1.5,1.5-1.5h41.76c.83,0,1.5,.67,1.5,1.5v20.04c0,.83-.67,1.5-1.5,1.5h-4.38l1.2,.24c-1.06,2.4-2.06,4.66-3.05,6.75-.47,1,.26,2.13,1.36,2.13h10.15c.83,0,1.5,.67,1.5,1.5ZM75.3,16.68h-17.52c-.83,0-1.5-.67-1.5-1.5v-5.28c0-.83,.67-1.5,1.5-1.5h17.52c.83,0,1.5-.67,1.5-1.5V1.5c0-.83,.67-1.5,1.5-1.5h7.44c.83,0,1.5,.67,1.5,1.5V6.9c0,.83,.67,1.5,1.5,1.5h18.6c.83,0,1.5,.67,1.5,1.5v5.28c0,.83-.67,1.5-1.5,1.5h-18.6c-.83,0-1.5,.67-1.5,1.5v3.84c0,.83,.67,1.5,1.5,1.5h15.84c.83,0,1.5,.67,1.5,1.5v5.16c0,.83-.67,1.5-1.5,1.5H60.18c-.83,0-1.5-.67-1.5-1.5v-5.16c0-.83,.67-1.5,1.5-1.5h15.12c.83,0,1.5-.67,1.5-1.5v-3.84c0-.83-.67-1.5-1.5-1.5Zm-14.28,65.52h42.72c.83,0,1.5,.67,1.5,1.5v24.72c0,.83-.67,1.5-1.5,1.5h-7.32c-.83,0-1.5-.67-1.5-1.5h0c0-.83-.67-1.5-1.5-1.5h-22.32c-.83,0-1.5,.67-1.5,1.5h0c0,.83-.67,1.5-1.5,1.5h-7.08c-.83,0-1.5-.67-1.5-1.5v-24.72c0-.83,.67-1.5,1.5-1.5Zm8.58,8.7v6.84c0,.83,.67,1.5,1.5,1.5h22.32c.83,0,1.5-.67,1.5-1.5v-6.84c0-.83-.67-1.5-1.5-1.5h-22.32c-.83,0-1.5,.67-1.5,1.5Zm1.74-38.7h21.72c.83,0,1.5-.67,1.5-1.5v-5.4c0-.83-.67-1.5-1.5-1.5h-21.72c-.83,0-1.5,.67-1.5,1.5v5.4c0,.83,.67,1.5,1.5,1.5Zm3.17,9.57c.94,2,1.77,4.12,2.34,5.95,.19,.62,.77,1.04,1.42,1.04,1.9,0,5.72,0,7.51,0,.59,0,1.13-.35,1.36-.89,.83-1.89,1.74-4.14,2.5-6.23,.36-.97-.37-2.01-1.41-2.01-3.15,0-9.06,0-12.38,0-1.1,0-1.82,1.14-1.35,2.13Z"/>
</svg>