<?xml version="1.0" encoding="UTF-8"?>
<svg xmlns="http://www.w3.org/2000/svg" viewBox="0 0 30.13 44.05">
<path fill="#fe5226" d="M8.7,0V13.85c0,1.02,.22,1.71,.65,2.06,.43,.36,1.17,.54,2.21,.54v.68c-.43-.02-1.07-.05-1.9-.08-.83-.03-1.7-.05-2.58-.05-1.04,0-2.04,.02-2.99,.05-.95,.03-1.69,.06-2.21,.08v-.68c1.04,0,1.85-.18,2.44-.54,.59-.36,.88-1.07,.88-2.13V5.88c0-1.04-.1-1.81-.31-2.31-.21-.5-.57-.82-1.09-.98-.52-.15-1.25-.23-2.18-.23v-.72c1.65-.04,3.02-.18,4.13-.42,1.11-.24,2.09-.65,2.96-1.24Z"/>
<path fill="#fe5226" d="M25.03,0V13.85c0,1.02,.22,1.71,.65,2.06,.43,.36,1.17,.54,2.21,.54v.68c-.43-.02-1.07-.05-1.9-.08-.83-.03-1.7-.05-2.58-.05-1.04,0-2.04,.02-2.99,.05-.95,.03-1.69,.06-2.21,.08v-.68c1.04,0,1.85-.18,2.44-.54,.59-.36,.88-1.07,.88-2.13V5.88c0-1.04-.1-1.81-.31-2.31-.21-.5-.57-.82-1.09-.98-.52-.15-1.25-.23-2.18-.23v-.72c1.65-.04,3.02-.18,4.13-.42,1.11-.24,2.09-.65,2.96-1.24Z"/>
<path fill="#fe5226" d="M6.79,21.97c1.56,0,2.8,.36,3.71,1.07,.91,.72,1.37,1.73,1.37,3.06,0,.85-.21,1.64-.62,2.39-.41,.75-.95,1.46-1.61,2.13-.66,.67-1.37,1.32-2.13,1.95-.76,.63-1.49,1.24-2.19,1.84-.7,.6-1.31,1.21-1.8,1.84h6.76c.89,0,1.45-.12,1.69-.36,.24-.24,.4-.65,.49-1.24h.59c0,1.26,.01,2.22,.03,2.89,.02,.67,.05,1.28,.1,1.82-.19-.04-.55-.08-1.07-.1-.52-.02-1.12-.04-1.79-.05-.67-.01-1.33-.02-1.98-.02H.1v-.59c.63-.69,1.4-1.44,2.31-2.24,.91-.8,1.79-1.68,2.65-2.63,.86-.95,1.57-2,2.15-3.14,.57-1.14,.86-2.37,.86-3.69,0-1.21-.28-2.09-.83-2.63-.55-.54-1.34-.81-2.36-.81-.89,0-1.7,.24-2.42,.73-.73,.49-1.37,1.21-1.93,2.16l-.52-.32c.37-.69,.85-1.35,1.43-1.97,.59-.62,1.32-1.12,2.19-1.51,.88-.39,1.93-.59,3.17-.59Z"/>
<path fill="#fe5226" d="M23.18,21.97c2.17,0,3.87,.76,5.1,2.28,1.24,1.52,1.85,3.66,1.85,6.44,0,1.78-.25,3.35-.75,4.73-.5,1.38-1.17,2.58-2,3.61-.83,1.03-1.76,1.89-2.78,2.57-1.02,.68-2.05,1.22-3.1,1.63-1.05,.4-2.04,.68-2.97,.83l-.13-.65c.91-.26,1.84-.63,2.78-1.11,.94-.48,1.81-1.17,2.6-2.08,.79-.91,1.42-2.13,1.9-3.67,.48-1.54,.72-3.49,.72-5.85,0-2.12-.18-3.77-.54-4.92-.36-1.16-.81-1.97-1.35-2.44-.54-.47-1.09-.7-1.66-.7s-1.14,.22-1.66,.67c-.52,.44-.94,1.17-1.27,2.16-.33,1-.49,2.31-.49,3.93s.15,2.81,.44,3.74c.29,.93,.69,1.6,1.2,2.02,.51,.41,1.06,.62,1.64,.62,.43,0,.92-.11,1.45-.33,.53-.22,1.02-.58,1.48-1.09,.45-.51,.77-1.21,.94-2.1l.33-.1c-.15,1.17-.52,2.08-1.09,2.73-.57,.65-1.23,1.12-1.97,1.4-.74,.28-1.44,.42-2.11,.42-1.06,0-2.05-.28-2.97-.83-.92-.55-1.66-1.35-2.23-2.41-.56-1.05-.85-2.33-.85-3.85,0-1.63,.34-3.01,1.02-4.16,.68-1.15,1.59-2.02,2.73-2.6,1.14-.59,2.38-.88,3.72-.88Z"/>
</svg>