<?xml version="1.0" encoding="UTF-8"?>
<svg xmlns="http://www.w3.org/2000/svg" viewBox="0 0 51.95 51.28">
<path fill="#435B5A" d="M47.44,30.27s2.79,2.23,4.51,3.85c-.17,.61-.67,.89-1.39,.89H.45l-.45-1.67H9.31c-.56-.06-1.11-.33-1.67-.84,0-1.78-.78-4.07-1.62-5.46-.56,.17-1.17,.28-1.78,.28h-.61V15.22l4.29,1.78h10.7l2.06-2.12,4.51,3.29c-.28,.39-1.06,.84-2.01,1v6.58c-.06,.39-2.06,1.23-3.4,1.23h-.67v-1.45H7.64v.61c0,.11-.28,.33-.72,.56,6.41,2.51,5.13,6.41,2.79,6.63h4.85c.56-2.06,1.34-4.79,1.78-6.8l5.63,1.56c-.28,.61-.95,1.11-2.12,1.06-1,1.23-2.34,2.79-3.68,4.18h3.62l2.45-3.01s1.95,1.56,3.62,3.01h7.92c-.5-.06-1.11-.33-1.62-.84,0-1.78-.84-4.12-1.62-5.52-.61,.22-1.28,.33-1.95,.33h-.61V15.22l4.35,1.78h11.37l2.06-2.17,4.63,3.34c-.33,.39-1.06,.84-2.01,1v6.58c-.06,.33-2.23,1.23-3.51,1.23h-.67v-1.45h-12.15v.61c0,.11-.28,.33-.72,.56,6.47,2.45,5.18,6.41,2.9,6.63h5.02c.56-2.01,1.23-4.91,1.62-6.91l5.63,1.5c-.17,.67-.89,1.11-2.01,1.06-1,1.34-2.4,2.9-3.79,4.35h4.29l2.45-3.07ZM.45,5.85H11.15V0l6.13,.56c-.11,.72-.56,1.23-1.84,1.45v3.85h3.62l2.62-3.34s2.12,1.67,3.9,3.23h9.76V0l6.13,.56c-.11,.72-.56,1.23-1.78,1.45v3.73h4.29l2.62-3.34s3.07,2.4,4.85,4.07c-.17,.61-.72,.89-1.45,.89h-10.31v4.74h3.9l2.45-3.07s2.95,2.17,4.68,3.79c-.11,.61-.61,.89-1.39,.89H26.98l-.45-1.62h8.81V7.36h-9.48c-.22,.06-.5,.11-.78,.11H15.44v4.63h3.01l2.51-3.07s2.84,2.17,4.68,3.79c-.17,.61-.72,.89-1.51,.89H1.9l-.45-1.62H11.15V7.47H.89l-.45-1.62Zm20.85,30.1l4.57,3.4c-.33,.39-1.11,.84-2.12,1v9.2c-.06,.33-2.06,1.17-3.4,1.17h-.67v-2.51H7.64v1.78c0,.33-1.73,1.28-3.34,1.28h-.61v-14.94l4.24,1.84h11.26l2.12-2.23ZM7.64,18.62v5.3h11.48v-5.3H7.64Zm12.04,27.93v-6.74H7.64v6.74h12.04Zm25.98-10.65l4.63,3.46c-.28,.39-1.11,.84-2.06,1v9.14c-.06,.39-2.17,1.23-3.46,1.23h-.67v-2.45h-12.04v1.73c0,.33-1.78,1.28-3.46,1.28h-.56v-14.94l4.29,1.84h11.26l2.06-2.29Zm-13.6-17.28v5.3h12.15v-5.3h-12.15Zm12.04,28.04v-6.86h-12.04v6.86h12.04Z"/>
</svg>