<?xml version="1.0" encoding="UTF-8"?>
<svg xmlns="http://www.w3.org/2000/svg" viewBox="0 0 860.77 648.28">
  <path fill="#fe5226" fill-rule="evenodd" d="M194.02,284.25c38.3-23.57,79.12-51.32,126-65.25.5-.75,1-1.5,1.5-2.25-11.34-7.89-32.54,1.78-42.75,6-33.25,15.75-66.5,31.5-99.75,47.25,24.82-67.5,46.06-131.85,73.5-195,5.93-13.65,32.4-59.63,28.5-74.25-2-.25-4-.5-6-.75-19.78,14.13-30.25,49.44-40.5,72.75-21.57,49.06-43.71,99.47-60.75,153.75-5.38,17.15-5.91,33.27-11.25,52.5-2.09,7.53-10.1,8.8-12,17.25,13.42,12.58,34.68-6.57,43.5-12ZM671.02,233.25c.75.5,1.5,1,2.25,1.5,11.48-12.61,5.26-35.99-2.25-48,6.25-10.5,12.5-21,18.75-31.5-.25-.5-.5-1-.75-1.5h-2.25c-5.5,9-11,18-16.5,27-.75.5-1.5,1-2.25,1.5-8.46-14.79-23.92-23.33-32.25-37.5,5.99-10.44,69.81-87.64,8.25-86.25-35.47,15.51-34.49,38.25-21.75,75.75-10.28,15.38-46.97,58.72-29.25,84.75,20.73,30.44,67.08-10,74.25-27,.5-.25,1-.5,1.5-.75,6.54,13.2,7.25,26.6,2.25,41.25v.75ZM643.27,63c2.5.75,5,1.5,7.5,2.25,11.15,29.58-14.87,43.75-24,63.75-.5.25-1,.5-1.5.75-14.95-30.26-7.75-53.95,18-66.75ZM610.27,219c-15.6-23.26,13.17-54.11,21.75-69.75,13.05,6.21,26.25,25.33,33.75,37.5-10.52,17.12-28.81,43.01-55.5,32.25ZM405.52,99c.75-.75,1.5-1.5,2.25-2.25-4.16-2.1-7.81-3.73-14.25-3.75-14.14,8.9-25.69,33.31-27.75,53.25,11.49,4.03,35.49-36.92,39.75-47.25ZM408.52,225.75c-1.56,6.79-1.38,13.03.75,18.75,31.33,9.44,53.21-33.33,71.25-47.25.78,22.64-10.03,58.66,6,74.25,3.5.25,7,.5,10.5.75-20.14-27.23,8.47-72.07,3.75-101.25-9.06-5.85-13.61.19-20.25,4.5-.5-4.25-1-8.5-1.5-12.75-4.39-2.79-8.57-4.03-16.5-3.75-5.5,2.75-11,5.5-16.5,8.25-21.88,16.42-28.49,42.73-54,58.5-6.85,4.23-20.81,15.26-33,10.5-8.25-2.87-11.45-12.7-10.5-22.5,11.14-4.36,42.44-25.22,35.25-42.75-3.31-9.56-18.32-14.39-28.5-8.25-14.16,8.54-31.51,39.54-24,63.75,11.83,38.16,59.98,12.38,77.25-.75ZM463.27,170.25h.75c3.52,4.13,2.49,15.95,3.75,21-9.61,15.5-26.98,41.12-46.5,45.75,4.13-30.36,23.85-49.98,42-66.75ZM365.77,172.5h1.5c1.17,11.69-8.01,21.66-15.75,27,1.5-13.58,7.94-18.78,14.25-27ZM395.02,594c-13.1,13.09-31.34,45.07-58.5,37.5-13.84-22.98,0-62.34,6.75-84,15.05-48.26,29.4-93.87,48-138.75,6.51-15.7,24.92-44.8,25.5-61.5-2.5-.25-5-.5-7.5-.75-13.51,11.36-20.17,31.57-27.75,48.75-16.55,37.51-32.58,77.25-48,117-4,12.5-8,25-12,37.5-9.51,15.75-41.65,44.77-63,48-3.97-20.26,6.8-41.32,12.75-60l-.75-1.5c-3.5-.5-7-1-10.5-1.5-6.81,6.5-31.25,52.13-19.5,65.25,15.64,30.01,68.95-25,75-30-3.27,18.1-11.23,51.27,2.25,64.5,25.98,25.5,79.23-14.98,82.5-39-.5-.5-1-1-1.5-1.5h-3.75ZM486.52,594c-14.73,14.74-26.73,38.98-55.5,39-17.9-17.86-3.83-63.59,3-85.5,14.94-47.95,31.43-94.71,49.5-140.25,8.5-20,17-40,25.5-60-2.75-.25-5.5-.5-8.25-.75-15.67,14.88-23.74,39.65-33,60.75-20.4,46.48-39.36,95.61-56.25,146.25-4.78,14.35-15.71,58.87-6,75.75,19.64,34.15,87.65-8.17,86.25-34.5-1.75-.25-3.5-.5-5.25-.75ZM264.52,368.25c-1.25-.5-2.5-1-3.75-1.5-1,.5-2,1-3,1.5-17.57,73.24-39.12,140.11-69.75,200.25-13.42,26.35-30.7,57.29-59.25,68.25-28.73-13.97-12.41-123.07-6.75-156,2.19-12.73,6.93-45.83-2.25-53.25-24.16-5.64-27.21,15.84-35.25,30.75-16.92,31.37-32.87,69.46-60,90.75-2.1-16.43,3.07-31.69,6.75-45,6.57-23.79,11.61-45.72,20.25-67.5,6.25-14,12.5-28,18.75-42h9v-6.75c-10.28-15.14-28.77,10.01-32.25,15.75-19.31,31.81-31.11,71.74-42,111-3.04,10.97-8.74,34.34-1.5,45,7.74,11.39,30.55,4.43,38.25-1.5,21.94-16.91,46.03-51.17,56.25-78.75.5-.25,1-.5,1.5-.75-1.26,43.04-28.99,153.16,15,167.25,36.19,11.6,59.13-19.38,72-37.5,29.58-41.67,45.23-96.37,62.25-150.75,8.05-25.74,18.56-56.33,15.75-89.25ZM260.02,504.75v5.25c1.5,1.25,3,2.5,4.5,3.75,13.67,2.94,16.46-8.32,20.25-17.25-4.75-.5-9.5-1-14.25-1.5-4.89,2.95-8.96,3.24-10.5,9.75ZM532.27,514.5c5.66-4.98,8.63-10.66,12-18-4.75-.5-9.5-1-14.25-1.5-3.25,2-6.5,4-9.75,6-.25,2.5-.5,5-.75,7.5,1.5,1.75,3,3.5,4.5,5.25,2.75.25,5.5.5,8.25.75ZM662.02,527.25c-9.33.27-10.65,4.2-15.75,8.25.18-7.98-.83-11.47-3.75-15.75-4.75-.5-9.5-1-14.25-1.5-20.95,12.26-65.15,51.05-53.25,85.5,33.52,10.12,52.62-32.9,71.25-47.25,2.52,23.81-8.71,54,4.5,73.5,4,.5,8,1,12,1.5-13.09-18.05-3.12-59.06,1.5-80.25,1.15-5.27,4.36-14.6,2.25-20.25-1.36-2.36-2.1-2.53-4.5-3.75ZM590.02,594.75c-.5.5-1,1-1.5,1.5h-.75c.45-30.9,25.56-49.91,41.25-66.75h1.5c1,7,2,14,3,21-9.61,15.45-25.2,38.12-43.5,44.25ZM857.77,554.25c-13.29,10.11-23.6,25.37-39,33h-.75c4.86-21.8,16.82-39.65,17.25-63l-3.75-3.75c-3.25-.25-6.5-.5-9.75-.75-19.52,13.04-29.84,34.94-51,46.5h-2.25c1.73-13.01,11.99-26.99,9-39.75-1.25-1.5-2.5-3-3.75-4.5-32.96-6.53-63.4,50.55-86.25,65.25,2.75-7.39,14.76-36.39,12.75-42-.25-.75-.5-1.5-.75-2.25-1.25-.25-2.5-.5-3.75-.75-11.72,6.71-22.79,36.19-22.5,54,6.72,8.27,19.01,1.01,24-3.75,20-18.25,40-36.5,60-54.75-1.45,10.3-10.29,26.81-5.25,36.75.75,1.25,1.5,2.5,2.25,3.75,24.58,5.39,41.83-20.38,56.25-31.5-2.28,16.79-10.78,27.07-10.5,47.25,1.75,1.75,3.5,3.5,5.25,5.25,26.49,6.75,43.19-26.65,55.5-40.5v-3c-1-.5-2-1-3-1.5ZM590.77,539.25h-.75c-7.48,4.45-11.21,12.86-16.5,19.5-11.72,14.72-33.38,35.71-55.5,39-3.81-18.81,5.58-39.68,12-56.25v-5.25c-3.5-.5-7-1-10.5-1.5-7.57,7.24-35.16,59.22-15.75,69.75,33.11,17.95,78.67-41.38,87-60.75v-4.5Z"/>
</svg>